{
  "accessors": [
    {
      "bufferView": 2,
      "componentType": 5126,
      "count": 65532,
      "max": [
        46.177120208740234,
        51.399391174316406,
        21.669620513916016
      ],
      "min": [
        -46.177120208740234,
        -53.854129791259766,
        -78.42809295654297
      ],
      "type": "VEC3"
    },
    {
      "bufferView": 2,
      "byteOffset": 786384,
      "componentType": 5126,
      "count": 65532,
      "max": [
        1.0,
        0.9999276995658875,
        0.9999980330467224
      ],
      "min": [
        -0.9999828934669495,
        -0.9999238848686218,
        -0.9999908208847046
      ],
      "type": "VEC3"
    },
    {
      "bufferView": 1,
      "componentType": 5126,
      "count": 65532,
      "max": [
        0.9924399852752686,
        0.9987199902534485
      ],
      "min": [
        0.0012600000482052565,
        0.2020999938249588
      ],
      "type": "VEC2"
    },
    {
      "bufferView": 0,
      "componentType": 5125,
      "count": 353364,
      "type": "SCALAR"
    },
    {
      "bufferView": 2,
      "byteOffset": 1572768,
      "componentType": 5126,
      "count": 53182,
      "max": [
        43.29941940307617,
        53.906761169433594,
        21.669620513916016
      ],
      "min": [
        -44.79800033569336,
        -53.906761169433594,
        -79.34858703613281
      ],
      "type": "VEC3"
    },
    {
      "bufferView": 2,
      "byteOffset": 2210952,
      "componentType": 5126,
      "count": 53182,
      "max": [
        0.9999876022338867,
        0.9999526143074036,
        0.9998359680175781
      ],
      "min": [
        -0.9999842643737793,
        -0.9999977946281433,
        -0.9999998807907104
      ],
      "type": "VEC3"
    },
    {
      "bufferView": 1,
      "byteOffset": 524256,
      "componentType": 5126,
      "count": 53182,
      "max": [
        0.9534500241279602,
        0.998740017414093
      ],
      "min": [
        0.005280000157654285,
        0.487419992685318
      ],
      "type": "VEC2"
    },
    {
      "bufferView": 0,
      "byteOffset": 1413456,
      "componentType": 5125,
      "count": 288996,
      "type": "SCALAR"
    }
  ],
  "asset": {
    "extras": {
      "author": "INNOVACIÓN-FACMEDUNAM (https://sketchfab.com/ANFITEATROFACMED)",
      "license": "CC-BY-ND-4.0 (http://creativecommons.org/licenses/by-nd/4.0/)",
      "source": "https://sketchfab.com/3d-models/new-qlone-a612fcf15f2d4de3a042140018cc7ee8",
      "title": "New Qlone"
    },
    "generator": "Sketchfab-11.30.0",
    "version": "2.0"
  },
  "bufferViews": [
    {
      "buffer": 0,
      "byteLength": 2569440,
      "name": "floatBufferViews",
      "target": 34963
    },
    {
      "buffer": 0,
      "byteLength": 949712,
      "byteOffset": 2569440,
      "byteStride": 8,
      "name": "floatBufferViews",
      "target": 34962
    },
    {
      "buffer": 0,
      "byteLength": 2849136,
      "byteOffset": 3519152,
      "byteStride": 12,
      "name": "floatBufferViews",
      "target": 34962
    }
  ],
  "buffers": [
    {
      "byteLength": 6368288,
      "uri": "scene.bin"
    }
  ],
  "extensionsUsed": [
    "KHR_materials_unlit"
  ],
  "images": [
    {
      "uri": "textures/material0_baseColor.jpeg"
    }
  ],
  "materials": [
    {
      "doubleSided": true,
      "emissiveTexture": {
        "index": 0
      },
      "extensions": {
        "KHR_materials_unlit": {}
      },
      "name": "material0",
      "pbrMetallicRoughness": {
        "baseColorTexture": {
          "index": 0
        },
        "metallicFactor": 0.0
      }
    }
  ],
  "meshes": [
    {
      "name": "Object_0",
      "primitives": [
        {
          "attributes": {
            "NORMAL": 1,
            "POSITION": 0,
            "TEXCOORD_0": 2
          },
          "indices": 3,
          "material": 0,
          "mode": 4
        }
      ]
    },
    {
      "name": "Object_1",
      "primitives": [
        {
          "attributes": {
            "NORMAL": 5,
            "POSITION": 4,
            "TEXCOORD_0": 6
          },
          "indices": 7,
          "material": 0,
          "mode": 4
        }
      ]
    }
  ],
  "nodes": [
    {
      "children": [
        1
      ],
      "matrix": [
        1.0,
        0.0,
        0.0,
        0.0,
        0.0,
        2.220446049250313e-16,
        -1.0,
        0.0,
        0.0,
        1.0,
        2.220446049250313e-16,
        0.0,
        0.0,
        0.0,
        0.0,
        1.0
      ],
      "name": "Sketchfab_model"
    },
    {
      "children": [
        2,
        3
      ],
      "name": "model_New Qlone_20210623_205015256.obj.cleaner.materialmerger.gles"
    },
    {
      "mesh": 0,
      "name": "Object_2"
    },
    {
      "mesh": 1,
      "name": "Object_3"
    }
  ],
  "samplers": [
    {
      "magFilter": 9729,
      "minFilter": 9987,
      "wrapS": 10497,
      "wrapT": 10497
    }
  ],
  "scene": 0,
  "scenes": [
    {
      "name": "Sketchfab_Scene",
      "nodes": [
        0
      ]
    }
  ],
  "textures": [
    {
      "sampler": 0,
      "source": 0
    }
  ]
}
